<?xml version="1.0" encoding="UTF-8"?><svg id="Layer_1" xmlns="http://www.w3.org/2000/svg" viewBox="0 0 174.62 43.98"><defs><style>.cls-1{fill:#4d4d4f;}.cls-2{fill:#464547;}</style></defs><g><path class="cls-1" d="M63.13,40.96c.16,1.67,1.4,2.27,2.99,2.27,1.86,0,2.64-.9,2.64-1.93,0-2.88-6.34-.97-6.34-4.63,0-1.29,1.2-2.49,3.52-2.49s3.51,1.27,3.49,2.78h-.94c0-1.42-1.23-2.03-2.56-2.03-1.99,0-2.71,1.1-2.54,2.05,.45,2.4,6.34,.67,6.34,4.28,0,1.71-1.4,2.71-3.8,2.71-2.17,0-3.77-1.01-3.77-3.02h.95Z"/><path class="cls-1" d="M72.49,43.74v-9.31h6.91v.75h-5.93v3.36h5.36v.75h-5.36v3.7h6.08v.75h-7.06Z"/><path class="cls-1" d="M86.64,34.19c3.25,0,4.89,2.18,4.89,4.91s-1.65,4.89-4.85,4.89-4.84-2.21-4.84-4.89c-.01-2.71,1.69-4.91,4.79-4.91Zm3.91,4.91c0-2.58-1.49-4.16-3.88-4.16-2.67,0-3.84,2-3.84,4.16s1.15,4.14,3.87,4.14,3.85-1.96,3.85-4.14Z"/><path class="cls-1" d="M94.44,34.43h.98v5.54c0,2.3,.92,3.26,3.05,3.26,2.24,0,3.05-1.06,3.05-3.26v-5.54h.98v5.8c0,2.42-1.34,3.75-4.03,3.75s-4.03-1.37-4.03-3.75v-5.8Z"/><path class="cls-1" d="M105.78,43.74v-9.31h.98v8.56h5.57v.75h-6.55Z"/></g><g><path class="cls-2" d="M118.14,21.56h-.11l.16-.17c.56-.56,.68-1.64,.41-3.75l-.67-3.74h-8.34l-2.02,3.08c-1.37,2.19-1.81,3.52-1.49,4.44l.07,.14h-3.07c1.23-1.35,1.78-2.07,2.81-3.56l.39-.57L117.46,.87h.98l3.1,16.87,.23,1.02c.33,1.44,.54,2.13,.89,2.81h-4.52Zm-.34-8.48l-1.57-8.98-6.03,8.98h7.6Z"/><path class="cls-2" d="M91.92,21.64c-3.55,0-6.28-1.09-7.89-3.14-1.44-1.83-1.88-4.31-1.23-6.96,1.6-6.54,7.45-11.11,14.24-11.11,2.55,0,6.31,1.05,7.64,2.55l-1.19,4.29c-.19-2.17-1.93-6.06-6.95-6.06-3.8,0-8.4,3.11-10.1,10.07-.72,2.93-.38,5.48,.95,7.17,1.15,1.46,2.95,2.23,5.22,2.23,3.64,0,7.97-3.43,9.94-6.3l-1.68,4.47c-1.25,1.14-4.65,2.8-8.94,2.8Z"/><path class="cls-2" d="M48.79,21.56s.86-.87,.86-2.79V3.66c0-1.92-.85-2.78-.86-2.79h7.32c4.61,0,13.32,2.24,13.32,10.7,0,6.86-5.77,9.99-11.13,9.99h-9.52ZM55.88,1.64c-1.51,0-2.53,.14-2.98,.82-.27,.41-.39,1.04-.39,2.04v13.88c0,.58,.1,1,.33,1.33,.49,.72,1.75,1.07,3.86,1.07,5.92,0,9.18-3.25,9.18-9.15,0-6.35-3.64-9.99-10-9.99Z"/><path class="cls-2" d="M28.73,21.56s.28-.34,.56-.89c.2-.39,.28-.96,.28-1.9V3.66c0-1.92-.85-2.78-.86-2.79h14.26s.43,2.41,.43,2.41c-1.23-1.23-1.78-1.51-4.46-1.51h-4.57c-1.7,0-1.96,.16-1.96,1.23v7.46h6.03c1.93,0,2.78-.56,2.79-.57v1.97s-.86-.57-2.79-.57h-6.03v7.92c0,.92,.46,1.28,1.56,1.28s5.94-.13,5.94-.13c3.28,0,5.05-2.19,5.05-2.19l-1.02,3.37h-15.21Z"/><path class="cls-2" d="M73.82,21.56s.86-.87,.86-2.79V3.66c0-1.92-.85-2.78-.86-2.79h4.57s-.86,.87-.86,2.79v15.11c0,1.92,.85,2.78,.86,2.79h-4.57Z"/><path class="cls-2" d="M19.23,21.56s.35-.41,.53-1.1c.13-.49,.2-1.06,.2-1.69V3.42S11.24,20.94,11.24,20.94h-.65L1.57,3.18v15.59c0,1.93,.73,2.78,.73,2.79H0s.73-.87,.73-2.79V3.66C.73,1.73,0,.87,0,.87H3.39S11.93,17.7,11.93,17.7L20.27,.87h3.11s-.36,.42-.55,1.15c-.12,.48-.19,1.03-.19,1.64v15.11c0,1.03,.18,1.71,.33,2.1,.15,.4,.4,.68,.4,.69"/><path class="cls-2" d="M124.84,21.52s.42-.34,.88-.9c.36-.43,.66-.99,1-1.91l5.54-15.11c.7-1.91-.12-2.77-.12-2.77h5.26s-.38,.24-.59,.41c-.18,.15-.45,.4-.74,.78-.37,.48-.68,1.04-.9,1.65l-5.71,15.58c-.16,.44-.18,.72-.06,.91,.14,.21,.63,.36,1.13,.35l6.25-.13c3.28,0,5.79-2.12,5.81-2.14l-1.73,3.32-16.01-.04Z"/><g><path class="cls-2" d="M172.3,16.9c-1.28,0-2.32,1.04-2.32,2.33s1.04,2.33,2.32,2.33,2.32-1.04,2.32-2.33-1.02-2.33-2.32-2.33Zm0,4.32c-1.02,0-1.92-.93-1.92-2s.9-2,1.92-2,1.92,.93,1.92,2-.9,2-1.92,2Z"/><path class="cls-2" d="M173.61,20.42c-.18-.13-.44-.38-.63-.62l-.37-.52c.34-.12,.53-.37,.53-.7,0-.43-.41-.63-.81-.63h-1.09v.05h.01c.1,.06,.11,.24,.11,.41v1.57c0,.33-.01,.38-.11,.43v.02s-.01,.04-.01,.04h.64v-.05h-.01c-.1-.06-.1-.12-.1-.42v-.64h.46c.13,.18,.23,.35,.33,.5,.24,.38,.39,.61,.57,.61h.54l-.06-.05Zm-1.34-1.23h-.51v-1.07h.49c.23,0,.49,.09,.49,.49,0,.26-.08,.58-.47,.58Z"/></g><path class="cls-2" d="M149.95,10.05C152.53,3.34,159.29-.44,165.1,.04s9.33,5.1,6.75,11.81c-2.58,6.71-9.34,10.49-15.15,10.01-5.81-.48-9.33-5.1-6.75-11.81Zm18.2,2.43c2.64-6.86,.76-11.31-3.5-11.66-3.67-.3-8.57,2.27-11,8.61-2.64,6.86-.79,11.3,3.53,11.66,3.65,.3,8.54-2.27,10.98-8.61Z"/></g></svg>