<?xml version="1.0" encoding="UTF-8"?><svg id="Layer_1" xmlns="http://www.w3.org/2000/svg" viewBox="0 0 226.45 20.1"><defs><style>.cls-1{fill:#464547;}</style></defs><g><path class="cls-1" d="M176.23,12.02c.16,1.69,1.42,2.3,3.03,2.3,1.89,0,2.68-.92,2.68-1.95,0-2.92-6.42-.98-6.42-4.69,0-1.31,1.21-2.53,3.57-2.53s3.55,1.28,3.54,2.81h-.95c0-1.44-1.24-2.05-2.59-2.05-2.02,0-2.75,1.11-2.57,2.08,.45,2.43,6.42,.68,6.42,4.33,0,1.73-1.42,2.75-3.85,2.75-2.19,0-3.82-1.02-3.82-3.06h.97Z"/><path class="cls-1" d="M185.75,14.83V5.41h7.01v.76h-6.01v3.4h5.43v.76h-5.43v3.74h6.16v.76h-7.15Z"/><path class="cls-1" d="M200.13,5.16c3.29,0,4.96,2.21,4.96,4.97s-1.67,4.95-4.91,4.95-4.9-2.24-4.9-4.95c-.01-2.75,1.71-4.97,4.85-4.97Zm3.96,4.97c0-2.62-1.51-4.21-3.93-4.21-2.71,0-3.89,2.03-3.89,4.21s1.17,4.19,3.92,4.19,3.9-1.99,3.9-4.19Z"/><path class="cls-1" d="M207.63,5.41h.99v5.62c0,2.33,.94,3.3,3.09,3.3,2.27,0,3.09-1.07,3.09-3.3V5.41h.99v5.88c0,2.45-1.36,3.8-4.08,3.8s-4.08-1.39-4.08-3.8V5.41Z"/><path class="cls-1" d="M219.16,14.83V5.41h.99V14.07h5.64v.76h-6.64Z"/></g><g><path class="cls-1" d="M106.41,19.72h-.1l.14-.15c.5-.5,.61-1.48,.37-3.38l-.6-3.37h-7.51l-1.82,2.77c-1.23,1.98-1.63,3.17-1.34,4l.06,.13h-2.76c1.11-1.22,1.61-1.87,2.53-3.2l.35-.51L105.79,1.08h.88l2.8,15.2,.21,.92c.29,1.3,.48,1.92,.8,2.53h-4.07Zm-.31-7.63l-1.42-8.09-5.43,8.09h6.85Z"/><path class="cls-1" d="M82.79,19.79c-3.2,0-5.65-.98-7.11-2.83-1.3-1.65-1.69-3.88-1.1-6.27,1.44-5.89,6.71-10.01,12.82-10.01,2.3,0,5.69,.94,6.88,2.3l-1.07,3.86c-.17-1.95-1.74-5.46-6.26-5.46-3.43,0-7.57,2.8-9.1,9.07-.64,2.64-.34,4.93,.86,6.46,1.03,1.31,2.66,2.01,4.7,2.01,3.28,0,7.18-3.09,8.95-5.68l-1.51,4.03c-1.13,1.03-4.19,2.52-8.05,2.52Z"/><path class="cls-1" d="M43.95,19.72s.78-.78,.78-2.51V3.59c0-1.73-.77-2.51-.78-2.51h6.6c4.15,0,12,2.01,12,9.64,0,6.18-5.19,9-10.02,9h-8.58ZM50.33,1.78c-1.36,0-2.28,.12-2.68,.74-.24,.37-.35,.94-.35,1.83v12.5c0,.52,.09,.9,.29,1.2,.44,.65,1.57,.96,3.48,.96,5.33,0,8.26-2.93,8.26-8.24,0-5.72-3.28-9-9.01-9Z"/><path class="cls-1" d="M25.88,19.72s.25-.31,.5-.8c.18-.35,.25-.86,.25-1.72V3.59c0-1.73-.77-2.51-.78-2.51h12.85s.39,2.17,.39,2.17c-1.11-1.11-1.61-1.36-4.02-1.36h-4.12c-1.53,0-1.77,.15-1.77,1.11v6.72h5.43c1.74,0,2.51-.5,2.51-.51v1.77s-.78-.51-2.51-.51h-5.43v7.13c0,.83,.42,1.15,1.41,1.16s5.35-.12,5.35-.12c2.95,0,4.55-1.97,4.55-1.97l-.92,3.04h-13.7Z"/><path class="cls-1" d="M66.49,19.72s.78-.78,.78-2.51V3.59c0-1.73-.77-2.51-.78-2.51h4.12s-.78,.78-.78,2.51v13.61c0,1.73,.77,2.51,.78,2.51h-4.12Z"/><path class="cls-1" d="M17.32,19.72s.31-.37,.48-.99c.12-.44,.18-.96,.18-1.52V3.38s-7.85,15.78-7.85,15.78h-.58L1.42,3.16v14.04c0,1.73,.66,2.51,.66,2.51H0s.66-.78,.66-2.51V3.59C.66,1.86,0,1.09,0,1.08H3.06s7.69,15.17,7.69,15.17L18.26,1.08h2.8s-.32,.38-.49,1.03c-.11,.43-.17,.93-.17,1.48v13.61c0,.92,.16,1.54,.3,1.9,.14,.36,.36,.62,.36,.62"/><path class="cls-1" d="M112.44,19.68s.37-.31,.79-.81c.33-.39,.59-.89,.9-1.72l4.99-13.61c.63-1.72-.11-2.49-.11-2.49h4.74s-.34,.22-.53,.37c-.16,.13-.41,.36-.67,.7-.34,.43-.61,.93-.81,1.48l-5.15,14.03c-.15,.4-.16,.65-.06,.82,.13,.19,.57,.33,1.02,.32s5.63-.12,5.63-.12c2.96,0,5.21-1.91,5.23-1.93l-1.56,2.99-14.42-.03Z"/><g><path class="cls-1" d="M155.19,15.52c-1.15,0-2.09,.94-2.09,2.1s.94,2.1,2.09,2.1,2.09-.94,2.09-2.1-.92-2.1-2.09-2.1Zm0,3.9c-.92,0-1.73-.84-1.73-1.8s.81-1.8,1.73-1.8,1.73,.84,1.73,1.8-.81,1.8-1.73,1.8Z"/><path class="cls-1" d="M156.37,18.69c-.16-.12-.4-.34-.57-.56l-.33-.47c.3-.11,.47-.33,.47-.63,0-.39-.37-.57-.73-.57h-.98v.04h.01c.09,.05,.1,.21,.1,.37v1.41c0,.3-.01,.34-.1,.39v.02s-.01,.04-.01,.04h.58v-.05h-.01c-.09-.06-.09-.1-.09-.38v-.57h.42c.11,.17,.21,.32,.29,.45,.22,.34,.35,.55,.52,.55h.49l-.05-.04Zm-1.2-1.11h-.46v-.97h.44c.2,0,.45,.08,.45,.44,0,.24-.07,.52-.43,.52Z"/></g><path class="cls-1" d="M135.06,9.35c2.33-6.05,8.41-9.45,13.64-9.02,5.23,.43,8.41,4.59,6.08,10.64-2.33,6.05-8.41,9.45-13.64,9.02-5.23-.43-8.41-4.59-6.08-10.64Zm16.4,2.19c2.38-6.18,.69-10.18-3.15-10.5-3.31-.27-7.72,2.04-9.91,7.75-2.38,6.18-.71,10.18,3.18,10.5,3.28,.27,7.69-2.04,9.89-7.75Z"/></g></svg>